<svg width="170" height="131" viewBox="0 0 170 131" fill="none" xmlns="http://www.w3.org/2000/svg">
<path d="M145.323 0H24.6774C18.1348 0.00763509 11.8622 2.74529 7.23586 7.61233C2.60952 12.4794 0.0072575 19.0783 0 25.9613V104.307C0 118.62 11.0719 130.268 24.6774 130.268H145.323C158.928 130.268 170 118.62 170 104.307V25.9613C170 11.648 158.928 0 145.323 0ZM138.029 17.3076L130.461 23.596L90.1 57.1149C87.0839 59.5957 82.9161 59.5957 79.9 57.1149L40.9645 24.7498L31.9874 17.3076H138.029ZM145.323 112.961H24.6774C20.1423 112.961 16.4516 109.078 16.4516 104.307V26.5094L69.7 70.7302C74.1968 74.4802 79.6258 76.3263 85 76.3263C90.3742 76.3263 95.8032 74.4802 100.3 70.7302L153.548 26.5267V104.307C153.548 109.078 149.858 112.961 145.323 112.961Z" fill="black"/>
</svg>
