<svg width="140" height="140" viewBox="0 0 150 150" fill="none" xmlns="http://www.w3.org/2000/svg">
<g clip-path="url(#clip0_157_39)">
<path d="M103.125 0H46.875C34.443 0 22.5201 4.9386 13.7294 13.7294C4.9386 22.5201 0 34.443 0 46.875L0 103.125C0 115.557 4.9386 127.48 13.7294 136.271C22.5201 145.061 34.443 150 46.875 150H103.125C115.557 150 127.48 145.061 136.271 136.271C145.061 127.48 150 115.557 150 103.125V46.875C150 34.443 145.061 22.5201 136.271 13.7294C127.48 4.9386 115.557 0 103.125 0ZM135.938 103.125C135.938 121.219 121.219 135.938 103.125 135.938H46.875C28.7813 135.938 14.0625 121.219 14.0625 103.125V46.875C14.0625 28.7813 28.7813 14.0625 46.875 14.0625H103.125C121.219 14.0625 135.938 28.7813 135.938 46.875V103.125Z" fill="url(#paint0_linear_157_39)"/>
<path d="M75 37.5C65.0544 37.5 55.5161 41.4509 48.4835 48.4835C41.4509 55.5161 37.5 65.0544 37.5 75C37.5 84.9456 41.4509 94.4839 48.4835 101.517C55.5161 108.549 65.0544 112.5 75 112.5C84.9456 112.5 94.4839 108.549 101.517 101.517C108.549 94.4839 112.5 84.9456 112.5 75C112.5 65.0544 108.549 55.5161 101.517 48.4835C94.4839 41.4509 84.9456 37.5 75 37.5ZM75 98.4375C68.7863 98.4301 62.8292 95.9584 58.4354 91.5646C54.0416 87.1708 51.5699 81.2137 51.5625 75C51.5625 62.0719 62.0812 51.5625 75 51.5625C87.9188 51.5625 98.4375 62.0719 98.4375 75C98.4375 87.9188 87.9188 98.4375 75 98.4375Z" fill="url(#paint1_linear_157_39)"/>
<path d="M115.312 39.6844C118.072 39.6844 120.309 37.4472 120.309 34.6875C120.309 31.9279 118.072 29.6907 115.312 29.6907C112.553 29.6907 110.315 31.9279 110.315 34.6875C110.315 37.4472 112.553 39.6844 115.312 39.6844Z" fill="url(#paint2_linear_157_39)"/>
</g>
<defs>
<linearGradient id="paint0_linear_157_39" x1="13.725" y1="136.275" x2="136.275" y2="13.725" gradientUnits="userSpaceOnUse">
<stop stop-color="#FFC107"/>
<stop offset="0.507" stop-color="#F44336"/>
<stop offset="0.99" stop-color="#9C27B0"/>
</linearGradient>
<linearGradient id="paint1_linear_157_39" x1="48.4875" y1="101.512" x2="101.512" y2="48.4875" gradientUnits="userSpaceOnUse">
<stop stop-color="#FFC107"/>
<stop offset="0.507" stop-color="#F44336"/>
<stop offset="0.99" stop-color="#9C27B0"/>
</linearGradient>
<linearGradient id="paint2_linear_157_39" x1="111.778" y1="38.2219" x2="118.847" y2="31.1532" gradientUnits="userSpaceOnUse">
<stop stop-color="#FFC107"/>
<stop offset="0.507" stop-color="#F44336"/>
<stop offset="0.99" stop-color="#9C27B0"/>
</linearGradient>
<clipPath id="clip0_157_39">
<rect width="150" height="150" fill="white"/>
</clipPath>
</defs>
</svg>
