<svg width="170" height="170" viewBox="0 0 170 170" fill="none" xmlns="http://www.w3.org/2000/svg">
<g clip-path="url(#clip0_157_39)">
<path d="M116.875 0H53.125C39.0354 0 25.5228 5.59708 15.56 15.56C5.59708 25.5228 0 39.0354 0 53.125L0 116.875C0 130.965 5.59708 144.477 15.56 154.44C25.5228 164.403 39.0354 170 53.125 170H116.875C130.965 170 144.477 164.403 154.44 154.44C164.403 144.477 170 130.965 170 116.875V53.125C170 39.0354 164.403 25.5228 154.44 15.56C144.477 5.59708 130.965 0 116.875 0ZM154.062 116.875C154.062 137.381 137.381 154.062 116.875 154.062H53.125C32.6188 154.062 15.9375 137.381 15.9375 116.875V53.125C15.9375 32.6188 32.6188 15.9375 53.125 15.9375H116.875C137.381 15.9375 154.062 32.6188 154.062 53.125V116.875Z" fill="url(#paint0_linear_157_39)"/>
<path d="M85 42.5C73.7283 42.5 62.9183 46.9777 54.948 54.948C46.9777 62.9183 42.5 73.7283 42.5 85C42.5 96.2717 46.9777 107.082 54.948 115.052C62.9183 123.022 73.7283 127.5 85 127.5C96.2717 127.5 107.082 123.022 115.052 115.052C123.022 107.082 127.5 96.2717 127.5 85C127.5 73.7283 123.022 62.9183 115.052 54.948C107.082 46.9777 96.2717 42.5 85 42.5ZM85 111.562C77.9578 111.554 71.2064 108.753 66.2268 103.773C61.2472 98.7936 58.4459 92.0422 58.4375 85C58.4375 70.3481 70.3587 58.4375 85 58.4375C99.6413 58.4375 111.562 70.3481 111.562 85C111.562 99.6413 99.6413 111.562 85 111.562Z" fill="url(#paint1_linear_157_39)"/>
<path d="M130.688 44.9757C133.815 44.9757 136.351 42.4402 136.351 39.3125C136.351 36.1849 133.815 33.6494 130.688 33.6494C127.56 33.6494 125.024 36.1849 125.024 39.3125C125.024 42.4402 127.56 44.9757 130.688 44.9757Z" fill="url(#paint2_linear_157_39)"/>
</g>
<defs>
<linearGradient id="paint0_linear_157_39" x1="15.555" y1="154.445" x2="154.445" y2="15.555" gradientUnits="userSpaceOnUse">
<stop stop-color="#FFC107"/>
<stop offset="0.507" stop-color="#F44336"/>
<stop offset="0.99" stop-color="#9C27B0"/>
</linearGradient>
<linearGradient id="paint1_linear_157_39" x1="54.9525" y1="115.047" x2="115.047" y2="54.9525" gradientUnits="userSpaceOnUse">
<stop stop-color="#FFC107"/>
<stop offset="0.507" stop-color="#F44336"/>
<stop offset="0.99" stop-color="#9C27B0"/>
</linearGradient>
<linearGradient id="paint2_linear_157_39" x1="126.682" y1="43.3182" x2="134.693" y2="35.3069" gradientUnits="userSpaceOnUse">
<stop stop-color="#FFC107"/>
<stop offset="0.507" stop-color="#F44336"/>
<stop offset="0.99" stop-color="#9C27B0"/>
</linearGradient>
<clipPath id="clip0_157_39">
<rect width="170" height="170" fill="white"/>
</clipPath>
</defs>
</svg>
